<svg xmlns="http://www.w3.org/2000/svg" viewBox="0 0 24 24" fill="white">
  <path d="M19.4 13c.1-.3.1-.6.1-1s0-.7-.1-1l2.1-1.6c.2-.2.2-.5.1-.8l-2-3.5c-.1-.2-.4-.3-.7-.2l-2.5 1c-.5-.4-1-.7-1.6-.9L14.5 2h-5l-.4 2.9c-.6.2-1.1.5-1.6.9l-2.5-1c-.3-.1-.6 0-.7.2l-2 3.5c-.1.3-.1.6.1.8L4.6 11c-.1.3-.1.6-.1 1s0 .7.1 1l-2.1 1.6c-.2.2-.2.5-.1.8l2 3.5c.1.2.4.3.7.2l2.5-1c.5.4 1 .7 1.6.9l.4 2.9h5l.4-2.9c.6-.2 1.1-.5 1.6-.9l2.5 1c.3.1.6 0 .7-.2l2-3.5c.1-.3.1-.6-.1-.8L19.4 13zM12 15.5c-1.9 0-3.5-1.6-3.5-3.5S10.1 8.5 12 8.5s3.5 1.6 3.5 3.5-1.6 3.5-3.5 3.5z"/>
</svg>